<svg width="55" height="12" viewBox="0 0 55 12" fill="none" xmlns="http://www.w3.org/2000/svg">
<path d="M3.76 12V2.752H0.176V0.719999H9.84V2.752H6.256V12H3.76ZM12.7989 12V0.719999H20.6389V2.656H15.1829V5.296H20.2549V7.248H15.1829V10.064H20.6389V12H12.7989ZM22.4615 12L27.6455 0.719999H29.7095L34.9575 12H32.4295L31.0695 8.864L32.0455 9.552H25.3415L26.3335 8.864L24.9735 12H22.4615ZM28.6695 3.344L26.6055 8.24L26.1735 7.632H31.2135L30.8455 8.24L28.7335 3.344H28.6695ZM37.5461 12V0.719999H39.7381L43.6581 9.52H43.1461L47.0661 0.719999H49.2421V12H46.9701V4.336H47.6101L44.1061 12H42.6661L39.1461 4.336H39.8181V12H37.5461ZM52.7694 12V10H54.7214V12H52.7694Z" fill="black"/>
</svg>
